#!OML:ASF E:/inclinewalkrobotboard/Project1/Captureday1/Session1/subject1.ASF
:FULLY-SPECIFIED
:DEGREES
101
root 0 0 0 -1.6422022106771574 0.034239943766492864 1.3456493010225974
lowerback 9.484877973192557 -1.2709134846638324 -2.7467067266864076
upperback 0.9242256667321103 -2.045260559628762 1.1963694178502824
thorax -4.251191965706523 -0.9350551766210693 3.088506494064011
lowerneck -16.229793573322386 -2.105109348820557 -2.2979328187131456
upperneck 14.480655142404991 -2.3163125568979526 0.42290885688865987
head 6.964484426076127 -1.2685318583847922 0.2584844266100204
rclavicle 2.96936182486156E-15 -9.445704987924472E-16
rhumerus -33.343800767737086 -28.603313513892555 -82.31152926664228
rradius 16.538209597100177
rwrist 17.24673664537222
rhand -20.039497541861955 26.411315415503452
rfingers 7.125019999999986
rthumb 6.332989538535409 -3.7150527239902758
lclavicle 3.1453660529308064E-15 -1.045344766644649E-15
lhumerus -31.7839351331709 -3.1100824732350367 79.50099177789627
lradius 34.72023939341465
lwrist 12.151160290632005
lhand -29.29374669383683 27.332561170614017
lfingers 7.125020000000003
lthumb -2.7051645826973694 57.45861673860185
rfemur -22.632302637871756 4.021046757258463 22.8072880155603
rtibia 39.65435327075588
rfoot -6.780668853108956 -8.632763478780996
rtoes 2.077320866681689
lfemur 8.147066912536456 -6.671631680160463 -24.73293196339866
ltibia 25.19796547408129
lfoot -16.142446370335392 0.5181325889834132
ltoes -5.872599278848416
102
root 0 0 0 -1.646333758717877 -0.041179392271155635 1.1314897533077812
lowerback 9.245855880329392 -1.3115438989488424 -2.5191491327430775
upperback 0.5980463310947544 -2.0547187048776125 1.2982898866178698
thorax -4.4719441482897935 -0.9468092048340473 3.0642690470400575
lowerneck -16.955888082880946 -2.046234548709314 -2.2175256280049833
upperneck 15.016293973379309 -2.2064506154601027 0.016927858407966623
head 7.274557365388581 -1.2299583914050431 0.10728897486404682
rclavicle 2.6999031134644446E-15 -6.178531026722769E-16
rhumerus -32.849299271173784 -29.409188474544127 -81.56997830773268
rradius 17.040131802427567
rwrist 17.14477956586272
rhand -20.15441283683166 26.19951646988894
rfingers 7.125019999999986
rthumb 6.222349614850277 -3.929715397477203
lclavicle 2.2753444133497827E-15 -1.1417593274148267E-15
lhumerus -31.71860160020101 -3.7753785717018524 79.71398403642308
lradius 35.727303946481015
lwrist 12.829905821814739
lhand -29.28004500188664 27.240495830171117
lfingers 7.125020000000003
lthumb -2.679089498168235 57.35069391430059
rfemur -21.981300059535762 4.238767812895375 23.25501015063188
rtibia 38.870365546791824
rfoot -7.370500168009629 -8.646558270012104
rtoes 1.9359784367335833
lfemur 8.019401010744748 -6.534757850720808 -24.623728212176978
ltibia 25.621500174919504
lfoot -15.8956826707884 0.3198681445119931
ltoes -6.013811817126097
103
root 0 0 0 -1.6419690198192605 -0.1393572814774271 0.8294550595259902
lowerback 9.01396407964242 -1.354059287488227 -2.234672294396228
upperback 0.3152650180772827 -2.058064834556821 1.4159943438422955
thorax -4.650103617111362 -0.9573327007689978 3.0227156234366275
lowerneck -17.543143283185746 -1.9746651257961019 -2.0886449307776864
upperneck 15.52235636640121 -2.0826892681285036 -0.39858910440129813
head 7.550428234987082 -1.1842100211457844 -0.05120591966318255
rclavicle 2.3598198309481333E-15 -3.0177888430630525E-16
rhumerus -32.830570215792065 -29.910202613352748 -81.28707181136437
rradius 17.013888066963844
rwrist 16.946664851519444
rhand -20.181781053405444 26.020564841408167
rfingers 7.125019999999986
rthumb 6.196313920267741 -4.107038436555051
lclavicle 1.7395304995239958E-15 -1.0769612943368001E-15
lhumerus -31.671132584331495 -4.0059722630131365 79.92362579142093
lradius 35.96482102492566
lwrist 12.95887964403024
lhand -29.224001252706174 27.16798385083964
lfingers 7.125020000000005
lthumb -2.6170545643466223 57.26531428565819
rfemur -21.314374695733253 4.381678140663482 23.576094006245057
rtibia 38.34279658292485
rfoot -7.737184588612285 -8.582613192530713
rtoes 1.9067579763862392
lfemur 7.672884568340801 -6.377216666281452 -24.465803159192077
ltibia 26.13642852307013
lfoot -15.509546949263372 0.07771969007360147
ltoes -6.0285251434300875
104
root 0 0 0 -1.5988832933876407 -0.20866821475463437 0.38935127174959305
lowerback 9.062407486749931 -1.404037694924933 -1.8870885218850015
upperback 0.13745493105013812 -2.0570959941869837 1.5526892305163826
thorax -4.8742866272945715 -0.9701485413913253 2.956473012764066
lowerneck -17.940088763270197 -1.901602177319877 -1.8416965553402966
upperneck 15.940507395322415 -1.9596765758806345 -0.9007819098204604
head 7.775415848408392 -1.1401091831195909 -0.25431913996720495
rclavicle 2.032555482422731E-15 5.717418157015396E-17
rhumerus -33.16438645950807 -30.367280077720338 -81.24539317200927
rradius 16.521267280374175
rwrist 16.57721216203795
rhand -20.123210090929533 25.790328470155806
rfingers 7.125019999999986
rthumb 6.253391163326948 -4.329959425483935
lclavicle 1.4622158726197466E-15 -8.765210219656205E-16
lhumerus -31.577866076359456 -3.9722293002385802 80.26501027356645
lradius 35.62469268204155
lwrist 12.64467135172767
lhand -29.09624716226535 27.033334953346984
lfingers 7.125020000000006
lthumb -2.4872780584420155 57.112207349632115
rfemur -20.27721031827467 4.513960692688307 23.952252045620657
rtibia 37.93859185811571
rfoot -8.021920536103043 -8.390644306010953
rtoes 2.0401157662154565
lfemur 6.663269632036944 -5.956311558720463 -24.089485683844106
ltibia 27.351831324793768
lfoot -14.516125608764586 -0.5183890274979235
ltoes -5.944280426826616
105
root 0 0 0 -1.620127248479547 -0.2692431192276321 0.19719867728320617
lowerback 9.32929666609934 -1.413818691194165 -1.751759011416118
upperback 0.13358954281186347 -2.041351648839739 1.609563230005036
thorax -5.029774816546455 -0.9682336054445164 2.92861561943438
lowerneck -17.981451614428032 -1.8789999887472226 -1.6889750494495366
upperneck 15.993467104714021 -1.9180197502166125 -1.1272855835854052
head 7.816853519615449 -1.1276251481488946 -0.35166674077531396
rclavicle 1.8270801823115566E-15 1.0960617716590579E-16
rhumerus -33.28049969486221 -30.38670589027433 -81.31081407467802
rradius 16.41159412177371
rwrist 16.570338973005345
rhand -20.106098576868913 25.747480618352377
rfingers 7.125019999999986
rthumb 6.270185133447083 -4.370797711248926
lclavicle 1.443822996143691E-15 -7.998608656418634E-16
lhumerus -31.42994368343533 -3.8518183075774717 80.56704585467548
lradius 35.13410878663367
lwrist 12.245040199964695
lhand -28.996879977015844 26.917587978273428
lfingers 7.125020000000008
lthumb -2.3883789347300457 56.9826759730542
rfemur -19.620972210594022 4.57444752246948 24.238464544871242
rtibia 38.03609669606534
rfoot -8.091812512740244 -8.235948607904971
rtoes 2.2727603441634288
lfemur 5.499464992834299 -5.461706590607595 -23.703825344181062
ltibia 28.597463242741032
lfoot -13.456661718320982 -1.1486545564394395
ltoes -5.8382969680206
106
root 0 0 0 -1.7439720002735575 -0.4005454336792842 0.0787946596578446
lowerback 9.687142804318803 -1.4015465853515843 -1.6813685804010767
upperback 0.1340290447729284 -2.005306887079005 1.654440550089948
thorax -5.229440677117871 -0.9534626727159703 2.9247871872624924
lowerneck -17.962323806853327 -1.876709476763638 -1.5472069890796891
upperneck 15.910147469092006 -1.9046099259899512 -1.2920805610427728
head 7.808193864026768 -1.1277204720671672 -0.42822538689863915
rclavicle 1.6056608638000917E-15 -1.6936647601214155E-18
rhumerus -33.24307113935493 -30.30745007293709 -81.33364003214352
rradius 16.457218088080666
rwrist 16.664812799460556
rhand -20.090777414438715 25.761338519025003
rfingers 7.125019999999985
rthumb 6.285169075488896 -4.354659399970323
lclavicle 1.4347526317940486E-15 -8.32354312368888E-16
lhumerus -31.22510425533036 -3.7360575524536386 80.91599494925686
lradius 34.60290024701573
lwrist 11.809955570482273
lhand -28.89281735936342 26.767242490354917
lfingers 7.12502000000001
lthumb -2.2845682234828395 56.81759024099956
rfemur -18.97799389047909 4.640373150839581 24.610019351364205
rtibia 38.35366224723383
rfoot -8.141180543162122 -8.079504023541292
rtoes 2.58291794293971
lfemur 3.747463120070326 -4.678359080366948 -23.169192025024024
ltibia 30.335164264766135
lfoot -11.951045807114193 -2.0501377809902706
ltoes -5.732061345885473
107
root 0 0 0 -1.998927535300536 -0.6393225611786477 -0.01655249735178943
lowerback 10.206538011603792 -1.3659402087901849 -1.64158541617628
upperback 0.12216672556350722 -1.9391657145596157 1.7044479013508638
thorax -5.530980026109418 -0.922356774357558 2.940552485340887
lowerneck -17.908453570351394 -1.8922703488651764 -1.3730885919217157
upperneck 15.707546113093528 -1.913333814194352 -1.456892051232045
head 7.765501237185081 -1.139244418414842 -0.5115889783767273
rclavicle 1.3728591698124615E-15 -3.1446458265164584E-16
rhumerus -33.086456855910534 -30.146225326557925 -81.31976950244888
rradius 16.553930859748576
rwrist 16.787956082059992
rhand -20.055001294673673 25.842318083228953
rfingers 7.125019999999985
rthumb 6.319571798863504 -4.268878594537291
lclavicle 1.400519119496668E-15 -1.022862288849539E-15
lhumerus -31.006248593348147 -3.645357896762277 81.28048849298622
lradius 34.11641216203985
lwrist 11.397056819521477
lhand -28.78480925823286 26.580683209040778
lfingers 7.125020000000012
lthumb -2.176676769262331 56.617031975330065
rfemur -18.273006189664923 4.7304716727037075 25.13130087636308
rtibia 38.89634272537049
rfoot -8.207060434639583 -7.91315753284222
rtoes 2.993405085838181
lfemur 0.8660537638804948 -3.3808586184841287 -22.379649856459473
ltibia 32.8826319527791
lfoot -9.640148631420379 -3.417985973382755
ltoes -5.537620803082124
